# AST/ASF file generated using VICON BodyLanguage
# -----------------------------------------------
:version 1.10
:name VICON
:units
  mass 1.0
  length 0.45
  angle deg
:documentation
   .ast/.asf automatically generated from VICON data using
   VICON BodyBuilder and BodyLanguage model FoxedUp or BRILLIANT.MOD
:root
   order TX TY TZ RX RY RZ
   axis XYZ
   position 0 0 0  
   orientation 0 0 0 
:bonedata
  begin
     id 1 
     name lhipjoint
     direction 0.62366 -0.717238 0.310833 
     length 2.53602 
     axis 0 0 0  XYZ
  end
  begin
     id 2 
     name lfemur
     direction 0.34202 -0.939693 0  
     length 7.40817  
     axis 0 0 20  XYZ
    dof rx ry rz
    limits (-160.0 20.0)
           (-70.0 70.0)
           (-60.0 70.0)
  end
  begin
     id 3 
     name ltibia
     direction 0.34202 -0.939693 0   
     length 7.7045   
     axis 0 0 20   XYZ
    dof rx
    limits (-10.0 170.0)
  end
  begin
     id 4 
     name lfoot
     direction 0.0673888 -0.185149 0.980397   
     length 2.09456   
     axis -90 7.62852e-016 20   XYZ
    dof rx rz
    limits (-45.0 90.0)
           (-70.0 20.0)
  end
  begin
     id 5 
     name ltoes
     direction 1.53575e-011 -4.21994e-011 1   
     length 1.05543   
     axis -90 7.62852e-016 20   XYZ
    dof rx
    limits (-90.0 20.0)
  end
  begin
     id 6 
     name rhipjoint
     direction -0.489018 -0.800347 0.346851   
     length 2.27268  
     axis 0 0 0  XYZ 
  end
  begin
     id 7 
     name rfemur
     direction -0.34202 -0.939693 0   
     length 7.55487   
     axis 0 0 -20   XYZ
    dof rx ry rz
    limits (-160.0 20.0)
           (-70.0 70.0)
           (-70.0 60.0)
  end
  begin
     id 8 
     name rtibia
     direction -0.34202 -0.939693 0   
     length 7.78969   
     axis 0 0 -20   XYZ
    dof rx
    limits (-10.0 170.0)
 end
 begin
     id 9 
     name rfoot
     direction -0.0859318 -0.236096 0.967923   
     length 2.19143  
     axis -90 -7.62852e-016 -20   XYZ
    dof rx rz
    limits (-45.0 90.0)
           (-20.0 70.0)
  end
  begin
     id 10 
     name rtoes
     direction -1.53538e-011 -4.21989e-011 1   
     length 1.09845   
     axis -90 -7.62852e-016 -20   XYZ
    dof rx
    limits (-90.0 20.0)
  end
  begin
     id 11 
     name lowerback
     direction -0.00762546 0.998978 -0.0445553   
     length 1.98161   
     axis 0 0 0   XYZ
    dof rx ry rz
    limits (-20.0 45.0)
           (-30.0 30.0)
           (-30.0 30.0)
  end
  begin
     id 12 
     name upperback
     direction 0.0422361 0.998867 -0.0219156   
     length 1.97558   
     axis 0 0 0   XYZ
    dof rx ry rz
    limits (-20.0 45.0)
           (-30.0 30.0)
           (-30.0 30.0)
  end
  begin
     id 13 
     name thorax
     direction 0.0442465 0.999021 7.47603e-005   
     length 1.97799   
     axis 0 0 0   XYZ
    dof rx ry rz
    limits (-20.0 45.0)
           (-30.0 30.0)
           (-30.0 30.0)
  end
  begin
     id 14 
     name lowerneck
     direction 0.00312169 0.984641 0.174564   
     length 1.78995   
     axis 0 0 0   XYZ
    dof rx ry rz
    limits (-20.0 45.0)
           (-30.0 30.0)
           (-30.0 30.0)
  end
  begin
     id 15 
     name upperneck
     direction -0.0383028 0.985255 -0.166749   
     length 1.83053   
     axis 0 0 0   XYZ
    dof rx ry rz
    limits (-20.0 45.0)
           (-30.0 30.0)
           (-30.0 30.0)
  end
  begin
     id 16
     name head
     direction -0.0129546 0.997059 -0.0755386  
     length 1.84088  
     axis 0 0 0   XYZ
    dof rx ry rz
    limits (-20.0 45.0)
           (-30.0 30.0)
           (-30.0 30.0)
  end
  begin
     id 17 
     name lclavicle
     direction 0.912857 0.370519 -0.171488  
     length 3.51279  
     axis 0 0 0   XYZ
    dof ry rz
    limits (-20.0 10.0)
           (0.0 20.0)
  end
  begin
     id 18 
     name lhumerus
     direction 1 -4.48962e-011 3.64361e-027   
     length 4.95663   
     axis 180 -30 -90   XYZ
    dof rx ry rz
    limits (-60.0 90.0)
           (-90.0 90.0)
           (-90.0 90.0)
  end
  begin
     id 19
     name lradius
     direction 1 -4.48974e-011 5.97202e-027   
     length 3.38177   
     axis 180 -30 -90   XYZ
    dof rx
    limits (-10.0 170.0)
  end
  begin
     id 20
     name lwrist
     direction 1 -4.4896e-011 9.83288e-027   
     length 1.69088   
     axis -9.31221e-015 90 90   XYZ
    dof ry
    limits (-180.0 0.0)
 end
  begin
     id 21 
     name lhand
     direction 1 -4.4902e-011 1.96551e-026   
     length 0.662909   
     axis -1.25475e-014 90 90   XYZ
    dof rx rz
    limits (-90.0 90.0)
           (-45.0 45.0)
  end
  begin
     id 22 
     name lfingers
     direction 1 -4.48971e-011 3.93277e-026   
     length 0.534454   
     axis -2.50945e-014 90 90   XYZ
    dof rx
    limits (0.0 90.0)
  end
  begin
     id 23
     name lthumb
     direction 0.707107 -6.34933e-011 0.707107   
     length 0.767373   
     axis -90 45 -4.80359e-014   XYZ
    dof rx rz
    limits (-45.0 45.0)
           (-45.0 45.0)
  end
  begin
     id 24 
     name rclavicle
     direction -0.900919 0.395364 -0.178976   
     length 3.40627  
     axis 0 0 0   XYZ 
    dof ry rz
    limits (-10.0 20.0)
           (-20.0 0.0)
  end
  begin
     id 25 
     name rhumerus
     direction -1 -4.48969e-011 1.03875e-027  
     length 5.08365   
     axis 180 30 90   XYZ
    dof rx ry rz
    limits (-90.0 60.0)
           (-90.0 90.0)
           (-90.0 90.0)
  end
  begin
     id 26 
     name rradius
     direction -1 -4.48951e-011 5.02733e-027   
     length 3.35984   
     axis 180 30 90   XYZ
    dof rx
    limits (-10.0 170.0)
  end
  begin
     id 27 
     name rwrist
     direction -1 -4.49011e-011 9.82828e-027   
     length 1.67992   
     axis -9.31221e-015 -90 -90   XYZ
    dof ry
    limits (-180.0 0.0)
  end
  begin
     id 28
     name rhand
     direction -1 -4.48894e-011 1.96774e-026   
     length 0.820764   
     axis -1.25475e-014 -90 -90   XYZ
    dof rx rz
    limits (-90.0 90.0)
           (-45.0 45.0)
  end
  begin
     id 29
     name rfingers
     direction -1 -4.49095e-011 3.92833e-026   
     length 0.661721   
     axis -2.50945e-014 -90 -90   XYZ
    dof rx
    limits (0.0 90.0)
  end
  begin
     id 30
     name rthumb
     direction -0.707107 -6.34881e-011 0.707107   
     length 0.950103   
     axis -90 -45 4.80359e-014   XYZ
    dof rx rz
    limits (-45.0 45.0)
           (-45.0 45.0)
  end
:hierarchy
  begin
    root lhipjoint rhipjoint lowerback
    lhipjoint lfemur
    lfemur ltibia
    ltibia lfoot
    lfoot ltoes
    rhipjoint rfemur
    rfemur rtibia
    rtibia rfoot
    rfoot rtoes
    lowerback upperback
    upperback thorax
    thorax lowerneck lclavicle rclavicle
    lowerneck upperneck
    upperneck head
    lclavicle lhumerus
    lhumerus lradius
    lradius lwrist
    lwrist lhand lthumb
    lhand lfingers
    rclavicle rhumerus
    rhumerus rradius
    rradius rwrist
    rwrist rhand rthumb
    rhand rfingers
  end

#!OML:ASF I:\golf\golf\golf 2\Subject 1\2002-09-07\Subject1.ASF
:FULLY-SPECIFIED
:DEGREES
108
root -8.02647 17.7685 0.322568 -48.0878 86.86 -62.2128
lowerback 4.32562 2.38288 -3.25329
upperback 4.92167 3.19195 3.764
thorax 2.27591 1.50232 5.65243
lowerneck -14.9997 -1.17977 0.650156
upperneck 37.8047 1.88452 -5.34788
head 16.0361 0.658277 -1.95756
rclavicle 2.10712e-014 6.75868e-014
rhumerus -8.65096 -0.145666 -101.09
rradius 34.4676
rwrist -54.4076
rhand -20.1151 -8.92253
rfingers 7.12502
rthumb 6.22874 -38.811
lclavicle 2.10712e-014 6.75868e-014
lhumerus 0.530461 -61.2239 101.367
lradius 20.937
lwrist 25.3617
lhand 183.608 261.44
lfingers 7.12502
lthumb -150.958 70.803
rfemur -28.9643 0.787397 11.2581
rtibia 30.2904
rfoot -10.5773 -7.71424
rtoes -8.65188
lfemur -27.1501 8.9353 -8.84335
ltibia 28.1464
lfoot -10.4121 -1.42791
ltoes -23.1165
109
root -8.03109 17.7689 0.3365 -45.0399 86.6346 -59.2318
lowerback 4.28907 2.33307 -3.37959
upperback 4.96584 3.12404 3.82098
thorax 2.34232 1.46163 5.79019
lowerneck -14.9852 -1.03651 0.585719
upperneck 37.6359 2.14516 -5.48181
head 15.9629 0.733512 -1.95522
rclavicle -7.15625e-015 1.35174e-014
rhumerus -8.83987 0.0147687 -101.041
rradius 35.1876
rwrist -55.096
rhand -22.4106 -8.36527
rfingers 7.12502
rthumb 4.01229 -38.3072
lclavicle -7.15625e-015 1.35174e-014
lhumerus 1.45873 -63.0523 100.369
lradius 21.2358
lwrist 26.898
lhand 178.181 252.899
lfingers 7.12502
lthumb -156.153 78.5612
rfemur -29.1801 0.802506 11.4153
rtibia 30.3962
rfoot -10.7109 -7.31318
rtoes -7.48276
lfemur -27.1355 8.94383 -8.65692
ltibia 28.1542
lfoot -10.3942 -1.09964
ltoes -23.343
110
root -8.03599 17.7668 0.353096 -42.2125 86.3094 -56.4533
lowerback 4.26854 2.27627 -3.47284
upperback 5.02626 3.048 3.89678
thorax 2.41889 1.41726 5.92919
lowerneck -15.0033 -0.839157 0.469716
upperneck 37.4768 2.48828 -5.57536
head 15.9069 0.840523 -1.91228
rclavicle 2.54444e-014 -1.11319e-014
rhumerus -9.18392 0.552173 -100.915
rradius 36.2183
rwrist -56.4979
rhand -22.9978 -7.90774
rfingers 7.12502
rthumb 3.44521 -37.8596
lclavicle 2.54444e-014 -1.11319e-014
lhumerus 2.50694 -63.8945 99.2396
lradius 21.3931
lwrist 26.5277
lhand 177.436 250.055
lfingers 7.12502
lthumb -156.868 81.3142
rfemur -29.3934 0.91417 11.6456
rtibia 30.4935
rfoot -10.6386 -7.06413
rtoes -8.87621
lfemur -27.0665 8.98285 -8.37706
ltibia 28.1406
lfoot -10.3536 -0.764082
ltoes -23.7812
111
root -8.03965 17.7656 0.377808 -36.8387 85.8573 -51.0899
lowerback 4.28451 2.30446 -3.71694
upperback 5.08526 3.08025 3.91729
thorax 2.45607 1.42363 6.09045
lowerneck -15.0169 -0.608691 0.407036
upperneck 37.3538 2.86765 -5.66165
head 15.8703 0.972571 -1.8702
rclavicle -3.61788e-014 -1.66979e-014
rhumerus -9.59463 1.26348 -100.783
rradius 37.3379
rwrist -57.8253
rhand -22.3445 -7.99835
rfingers 7.12502
rthumb 4.07611 -37.9391
lclavicle -3.61788e-014 -1.66979e-014
lhumerus 3.57942 -64.5071 98.0019
lradius 21.5125
lwrist 25.5033
lhand 178.846 249.032
lfingers 7.12502
lthumb -155.515 82.5127
rfemur -29.608 1.16335 11.8296
rtibia 30.5632
rfoot -10.4591 -6.83116
rtoes -12.831
lfemur -26.8741 9.26738 -8.17149
ltibia 28.1267
lfoot -10.3264 -0.467121
ltoes -24.0459
112
root -8.04243 17.7656 0.400374 -33.5158 85.4726 -47.7849
lowerback 4.28304 2.32305 -3.85113
upperback 5.14688 3.10259 3.87728
thorax 2.51456 1.42825 6.12635
lowerneck -15.0271 -0.416183 0.504425
upperneck 37.2425 3.14957 -5.77857
head 15.8356 1.08315 -1.88745
rclavicle -1.23246e-014 3.81667e-014
rhumerus -9.82829 1.49165 -100.743
rradius 38.267
rwrist -58.3577
rhand -22.4748 -8.35816
rfingers 7.12502
rthumb 3.95029 -38.3013
lclavicle -1.23246e-014 3.81667e-014
lhumerus 4.87952 -66.1338 96.4855
lradius 22.0916
lwrist 26.4775
lhand 177.964 249.48
lfingers 7.12502
lthumb -156.361 81.9532
rfemur -29.7874 1.22439 12.0413
rtibia 30.6038
rfoot -10.3663 -6.52211
rtoes -15.4832
lfemur -26.7299 9.45934 -7.97881
ltibia 28.1206
lfoot -10.3178 -0.19664
ltoes -23.9731
